# Blender v2.79 (sub 0) OBJ File: 'untitled.blend'
# www.blender.org
v 0.252646 -0.170597 -0.023503
v 0.252646 -0.170597 -0.074771
v 0.252646 -0.276614 -0.023503
v 0.303914 -0.170597 -0.023503
v 0.303914 -0.170597 -0.074771
v 0.303914 -0.276614 -0.074771
v 0.252646 -0.276614 -0.074771
v 0.303914 -0.276614 -0.023503
v 0.233879 -0.276614 -0.093538
v 0.322681 -0.276614 -0.004735
v 0.322681 -0.276614 -0.093538
v 0.233879 -0.276614 -0.004735
v 0.322681 -0.397262 -0.093538
v 0.233879 -0.397262 -0.004735
v 0.233879 -0.397262 -0.093538
v 0.322681 -0.397262 -0.004735
v 0.303914 -0.397262 -0.023503
v 0.252646 -0.397262 -0.023503
v 0.252646 -0.397262 -0.074771
v 0.303914 -0.397262 -0.074771
v 0.303914 -0.612997 -0.074771
v 0.252646 -0.612997 -0.023503
v 0.252646 -0.612997 -0.074771
v 0.303914 -0.612997 -0.023503
v 0.311494 -0.617610 -0.082350
v 0.245066 -0.617610 -0.082350
v 0.311494 -0.617610 -0.015924
v 0.245066 -0.617610 -0.015924
v 0.318089 -0.623546 -0.088946
v 0.318089 -0.623546 -0.009328
v 0.238471 -0.623546 -0.088946
v 0.238471 -0.623546 -0.009328
v 0.323471 -0.630601 -0.094328
v 0.233089 -0.630601 -0.094328
v 0.323471 -0.630601 -0.003946
v 0.233089 -0.630601 -0.003946
v 0.327454 -0.638530 -0.098311
v 0.229107 -0.638530 -0.098311
v 0.327454 -0.638530 0.000036
v 0.229107 -0.638530 0.000036
v 0.329900 -0.647059 -0.100756
v 0.226660 -0.647059 -0.100756
v 0.329900 -0.647059 0.002482
v 0.226660 -0.647059 0.002482
v 0.330725 -0.655894 -0.101582
v 0.225835 -0.655894 -0.101582
v 0.330725 -0.655894 0.003307
v 0.225835 -0.655894 0.003307
v 0.329900 -0.664729 -0.100756
v 0.329900 -0.664729 0.002482
v 0.226660 -0.664729 0.002482
v 0.226660 -0.664729 -0.100756
v 0.327454 -0.673258 -0.098311
v 0.327454 -0.673258 0.000036
v 0.229107 -0.673258 0.000036
v 0.229107 -0.673258 -0.098311
v 0.238471 -0.688242 -0.009328
v 0.245066 -0.694179 -0.015924
v 0.318089 -0.688242 -0.009328
v 0.323471 -0.681187 -0.094328
v 0.323471 -0.681187 -0.003946
v 0.233089 -0.681187 -0.003946
v 0.233089 -0.681187 -0.094328
v 0.318089 -0.688242 -0.088946
v 0.238471 -0.688242 -0.088946
v 0.245066 -0.694179 -0.082350
v 0.311494 -0.694179 -0.015924
v 0.311494 -0.694179 -0.082350
v 0.303914 -0.698791 -0.023503
v 0.252646 -0.698791 -0.023503
v 0.252646 -0.698791 -0.074771
v 0.303914 -0.698791 -0.074771
v 0.303914 -0.821097 -0.074772
v 0.252646 -0.821097 -0.023504
v 0.252646 -0.821097 -0.074772
v 0.303914 -0.821097 -0.023504
vn -1.0000 0.0000 0.0000
vn 0.0000 -0.0000 1.0000
vn 0.0000 0.0000 -1.0000
vn 1.0000 0.0000 0.0000
vn -0.0000 1.0000 0.0000
vn 0.0000 -1.0000 0.0000
vn 0.0000 0.8542 -0.5199
vn -0.5199 0.8542 0.0000
vn 0.5199 0.8542 0.0000
vn 0.0000 0.7433 -0.6689
vn 0.6690 0.7433 0.0000
vn -0.6690 0.7433 0.0000
vn 0.0000 0.7433 0.6689
vn 0.0000 0.6065 -0.7951
vn 0.7951 0.6065 0.0000
vn -0.7951 0.6065 0.0000
vn 0.0000 0.6065 0.7951
vn 0.0000 0.4489 -0.8936
vn 0.8936 0.4489 0.0000
vn -0.8936 0.4488 0.0000
vn 0.0000 0.2756 -0.9613
vn 0.0000 0.4488 0.8936
vn 0.9613 0.2757 0.0000
vn -0.9612 0.2758 0.0000
vn 0.0000 0.0931 -0.9957
vn 0.0000 0.2757 0.9613
vn 0.9957 0.0930 0.0000
vn -0.9957 0.0930 0.0000
vn 0.0000 -0.0931 -0.9957
vn 0.0000 0.0930 0.9957
vn 0.9957 -0.0930 0.0000
vn -0.9957 -0.0930 0.0000
vn 0.0000 -0.0930 0.9957
vn 0.0000 -0.2756 -0.9613
vn 0.9613 -0.2757 0.0000
vn -0.9612 -0.2758 0.0000
vn 0.0000 -0.7433 0.6690
vn 0.0000 -0.2757 0.9613
vn 0.0000 -0.4489 -0.8936
vn 0.8936 -0.4489 0.0000
vn -0.8936 -0.4488 0.0000
vn 0.0000 -0.6065 0.7951
vn 0.0000 -0.4488 0.8936
vn 0.0000 -0.6065 -0.7951
vn 0.7951 -0.6065 0.0000
vn -0.7951 -0.6065 0.0000
vn 0.0000 -0.7433 -0.6690
vn 0.6691 -0.7432 0.0000
vn -0.6691 -0.7432 0.0000
vn 0.0000 -0.8543 0.5198
vn 0.0000 -0.8543 -0.5198
vn 0.5198 -0.8543 0.0000
vn -0.5198 -0.8543 0.0000
vn 0.0000 0.8542 0.5199
s off
f 1//1 2//1 3//1
f 1//2 3//2 4//2
f 5//3 6//3 2//3
f 3//1 2//1 7//1
f 4//2 3//2 8//2
f 5//4 4//4 6//4
f 2//3 6//3 7//3
f 7//5 9//5 3//5
f 8//5 3//5 10//5
f 6//4 4//4 8//4
f 6//5 11//5 7//5
f 9//5 7//5 11//5
f 12//5 3//5 9//5
f 3//5 12//5 10//5
f 11//3 13//3 9//3
f 9//1 14//1 12//1
f 9//3 13//3 15//3
f 14//1 9//1 15//1
f 14//2 16//2 10//2
f 17//6 16//6 18//6
f 13//6 19//6 15//6
f 15//6 19//6 14//6
f 17//6 13//6 16//6
f 14//6 18//6 16//6
f 19//6 13//6 20//6
f 19//6 18//6 14//6
f 20//6 13//6 17//6
f 20//3 21//3 19//3
f 19//1 22//1 18//1
f 17//4 21//4 20//4
f 23//3 19//3 21//3
f 22//1 19//1 23//1
f 18//2 22//2 17//2
f 21//4 17//4 24//4
f 21//7 25//7 23//7
f 26//8 22//8 23//8
f 24//2 17//2 22//2
f 27//9 21//9 24//9
f 23//7 25//7 26//7
f 25//9 21//9 27//9
f 22//8 26//8 28//8
f 29//10 26//10 25//10
f 27//11 30//11 25//11
f 26//12 31//12 28//12
f 31//10 26//10 29//10
f 25//11 30//11 29//11
f 32//12 28//12 31//12
f 28//13 30//13 27//13
f 32//13 30//13 28//13
f 29//14 33//14 31//14
f 29//15 30//15 33//15
f 34//16 32//16 31//16
f 34//14 31//14 33//14
f 33//15 30//15 35//15
f 36//16 32//16 34//16
f 32//17 36//17 30//17
f 37//18 34//18 33//18
f 35//19 37//19 33//19
f 34//20 38//20 36//20
f 36//17 35//17 30//17
f 34//18 37//18 38//18
f 37//19 35//19 39//19
f 36//20 38//20 40//20
f 41//21 38//21 37//21
f 36//22 40//22 35//22
f 37//23 39//23 41//23
f 38//24 42//24 40//24
f 42//21 38//21 41//21
f 40//22 39//22 35//22
f 43//23 41//23 39//23
f 40//24 42//24 44//24
f 41//25 45//25 42//25
f 40//26 44//26 39//26
f 44//26 43//26 39//26
f 41//27 43//27 45//27
f 42//28 46//28 44//28
f 46//25 42//25 45//25
f 47//27 45//27 43//27
f 44//28 46//28 48//28
f 45//29 49//29 46//29
f 44//30 48//30 43//30
f 48//30 47//30 43//30
f 50//31 45//31 47//31
f 46//32 51//32 48//32
f 52//29 46//29 49//29
f 45//31 50//31 49//31
f 51//33 50//33 47//33
f 52//32 51//32 46//32
f 51//33 47//33 48//33
f 53//34 52//34 49//34
f 50//35 54//35 49//35
f 16//4 13//4 10//4
f 51//36 52//36 55//36
f 52//34 53//34 56//34
f 49//35 54//35 53//35
f 57//37 58//37 59//37
f 55//38 50//38 51//38
f 56//36 55//36 52//36
f 60//39 56//39 53//39
f 61//40 53//40 54//40
f 55//38 54//38 50//38
f 55//41 56//41 62//41
f 63//39 56//39 60//39
f 60//40 53//40 61//40
f 57//42 59//42 61//42
f 62//43 54//43 55//43
f 63//41 62//41 56//41
f 60//44 64//44 63//44
f 61//45 59//45 60//45
f 62//43 61//43 54//43
f 12//2 14//2 10//2
f 63//46 57//46 62//46
f 63//44 64//44 65//44
f 60//45 59//45 64//45
f 57//42 61//42 62//42
f 65//46 57//46 63//46
f 65//47 64//47 66//47
f 59//48 67//48 64//48
f 66//49 57//49 65//49
f 68//47 66//47 64//47
f 68//48 64//48 67//48
f 69//50 67//50 70//50
f 70//50 67//50 58//50
f 57//49 66//49 58//49
f 66//51 68//51 71//51
f 67//52 69//52 68//52
f 67//37 59//37 58//37
f 11//4 10//4 13//4
f 71//53 58//53 66//53
f 72//51 71//51 68//51
f 72//52 68//52 69//52
f 11//5 6//5 10//5
f 8//5 10//5 6//5
f 58//53 71//53 70//53
f 72//3 73//3 71//3
f 72//4 69//4 73//4
f 70//2 74//2 69//2
f 70//1 71//1 74//1
f 71//3 73//3 75//3
f 76//4 73//4 69//4
f 69//2 74//2 76//2
f 74//1 71//1 75//1
f 75//6 73//6 74//6
f 76//6 74//6 73//6
f 1//5 4//5 2//5
f 5//5 2//5 4//5
f 22//54 27//54 24//54
f 27//54 22//54 28//54
