# Blender v2.79 (sub 0) OBJ File: 'untitled.blend'
# www.blender.org
v -0.345489 0.074109 0.345293
v -0.345489 0.074109 0.394143
v -0.335959 0.074109 0.393204
v -0.364183 0.074109 0.390424
v -0.355019 0.074109 0.393204
v -0.380031 0.074109 0.379835
v -0.372629 0.074109 0.385910
v -0.390620 0.074109 0.363987
v -0.386106 0.074109 0.372433
v -0.394339 0.074109 0.345293
v -0.393400 0.074109 0.354823
v -0.390620 0.074109 0.326599
v -0.393400 0.074109 0.335763
v -0.380031 0.074109 0.310751
v -0.386106 0.074109 0.318153
v -0.364183 0.074109 0.300161
v -0.372629 0.074109 0.304676
v -0.345489 0.074109 0.296443
v -0.355019 0.074109 0.297382
v -0.326795 0.074109 0.300161
v -0.335959 0.074109 0.297382
v -0.310947 0.074109 0.310751
v -0.318349 0.074109 0.304676
v -0.300357 0.074109 0.326599
v -0.304872 0.074109 0.318153
v -0.296639 0.074109 0.345293
v -0.297578 0.074109 0.335763
v -0.300357 0.074109 0.363987
v -0.297578 0.074109 0.354823
v -0.304872 0.074109 0.372432
v -0.310947 0.074109 0.379835
v -0.318349 0.074109 0.385910
v -0.326795 0.074109 0.390424
v -0.345489 -0.852670 0.367629
v -0.341132 -0.852670 0.367199
v -0.345489 -0.894897 0.366413
v -0.345489 -0.894897 0.345293
v -0.341369 -0.894897 0.366007
v -0.337407 -0.894897 0.364805
v -0.333755 -0.894897 0.362853
v -0.330555 -0.894897 0.360227
v -0.327928 -0.894897 0.357027
v -0.325977 -0.894897 0.353375
v -0.324775 -0.894897 0.349413
v -0.324369 -0.894897 0.345293
v -0.366203 -0.894897 0.349413
v -0.366609 -0.894897 0.345293
v -0.365001 -0.894897 0.353375
v -0.363050 -0.894897 0.357027
v -0.360423 -0.894897 0.360227
v -0.357223 -0.894897 0.362854
v -0.353571 -0.894897 0.364805
v -0.349609 -0.894897 0.366007
v -0.349846 -0.852670 0.367199
v -0.354036 -0.852670 0.365928
v -0.357898 -0.852670 0.363864
v -0.361283 -0.852670 0.361087
v -0.364060 -0.852670 0.357702
v -0.366125 -0.852670 0.353840
v -0.367395 -0.852670 0.349650
v -0.367825 -0.852670 0.345293
v -0.323153 -0.852670 0.345293
v -0.323582 -0.852670 0.349650
v -0.324853 -0.852670 0.353840
v -0.326917 -0.852670 0.357702
v -0.329695 -0.852670 0.361087
v -0.333080 -0.852670 0.363864
v -0.336941 -0.852670 0.365928
v -0.367395 -0.852670 0.340935
v -0.366125 -0.852670 0.336745
v -0.364060 -0.852670 0.332884
v -0.361283 -0.852670 0.329499
v -0.357898 -0.852670 0.326721
v -0.354036 -0.852670 0.324657
v -0.349846 -0.852670 0.323386
v -0.345489 -0.852670 0.322957
v -0.341132 -0.852670 0.323386
v -0.336941 -0.852670 0.324657
v -0.333080 -0.852670 0.326721
v -0.329695 -0.852670 0.329499
v -0.326917 -0.852670 0.332884
v -0.324853 -0.852670 0.336745
v -0.323582 -0.852670 0.340935
v -0.345856 0.064038 -0.345383
v -0.345856 0.064038 -0.296533
v -0.336326 0.064038 -0.297472
v -0.364551 0.064038 -0.300252
v -0.355387 0.064038 -0.297472
v -0.380399 0.064038 -0.310841
v -0.372996 0.064038 -0.304766
v -0.390988 0.064038 -0.326689
v -0.386474 0.064038 -0.318244
v -0.394706 0.064038 -0.345383
v -0.393768 0.064038 -0.335853
v -0.390988 0.064038 -0.364077
v -0.393768 0.064038 -0.354913
v -0.380399 0.064038 -0.379925
v -0.386474 0.064038 -0.372523
v -0.364551 0.064038 -0.390515
v -0.372996 0.064038 -0.386001
v -0.345856 0.064038 -0.394233
v -0.355387 0.064038 -0.393295
v -0.327162 0.064038 -0.390515
v -0.336326 0.064038 -0.393295
v -0.311314 0.064038 -0.379925
v -0.318717 0.064038 -0.386001
v -0.300725 0.064038 -0.364077
v -0.305239 0.064038 -0.372523
v -0.297006 0.064038 -0.345383
v -0.297945 0.064038 -0.354913
v -0.300725 0.064038 -0.326689
v -0.297945 0.064038 -0.335853
v -0.305239 0.064038 -0.318244
v -0.311314 0.064038 -0.310841
v -0.318717 0.064038 -0.304766
v -0.327162 0.064038 -0.300252
v -0.345856 -0.852670 -0.323048
v -0.341499 -0.852670 -0.323477
v -0.337309 -0.852670 -0.324748
v -0.350214 -0.852670 -0.323477
v -0.354404 -0.852670 -0.324748
v -0.358265 -0.852670 -0.326812
v -0.361650 -0.852670 -0.329590
v -0.345856 -0.894897 -0.345383
v -0.325142 -0.894897 -0.349504
v -0.324736 -0.894897 -0.345383
v -0.326344 -0.894897 -0.353466
v -0.328296 -0.894897 -0.357117
v -0.330922 -0.894897 -0.360317
v -0.334123 -0.894897 -0.362944
v -0.337774 -0.894897 -0.364896
v -0.341736 -0.894897 -0.366097
v -0.345856 -0.894897 -0.366503
v -0.349977 -0.894897 -0.366097
v -0.353939 -0.894897 -0.364896
v -0.357590 -0.894897 -0.362944
v -0.360791 -0.894897 -0.360317
v -0.363417 -0.894897 -0.357117
v -0.365369 -0.894897 -0.353466
v -0.366571 -0.894897 -0.349504
v -0.366976 -0.894897 -0.345383
v -0.366492 -0.852670 -0.336836
v -0.364428 -0.852670 -0.332974
v -0.367763 -0.852670 -0.341026
v -0.323521 -0.852670 -0.345383
v -0.368192 -0.852670 -0.345383
v -0.333447 -0.852670 -0.326812
v -0.367763 -0.852670 -0.349741
v -0.366492 -0.852670 -0.353931
v -0.364428 -0.852670 -0.357792
v -0.361650 -0.852670 -0.361177
v -0.358266 -0.852670 -0.363955
v -0.354404 -0.852670 -0.366019
v -0.350214 -0.852670 -0.367290
v -0.345856 -0.852670 -0.367719
v -0.341499 -0.852670 -0.367290
v -0.337309 -0.852670 -0.366019
v -0.333447 -0.852670 -0.363955
v -0.330063 -0.852670 -0.361177
v -0.327285 -0.852670 -0.357792
v -0.325221 -0.852670 -0.353931
v -0.323950 -0.852670 -0.349741
v -0.323950 -0.852670 -0.341026
v -0.325221 -0.852670 -0.336836
v -0.327285 -0.852670 -0.332974
v -0.330063 -0.852670 -0.329590
vn 0.0000 1.0000 0.0000
vn 0.0981 -0.0285 0.9948
vn 0.0000 -1.0000 0.0000
vn -0.0981 -0.0285 0.9948
vn -0.0981 -0.0286 0.9948
vn -0.2902 -0.0285 0.9565
vn -0.2902 -0.0286 0.9565
vn -0.4711 -0.0285 0.8816
vn -0.4711 -0.0286 0.8816
vn -0.6341 -0.0285 0.7727
vn -0.6341 -0.0286 0.7727
vn -0.7727 -0.0285 0.6341
vn -0.7727 -0.0286 0.6341
vn -0.8816 -0.0285 0.4712
vn -0.8816 -0.0286 0.4712
vn -0.9566 -0.0286 0.2901
vn -0.9948 -0.0285 0.0981
vn -0.9948 -0.0286 0.0981
vn 0.9948 -0.0286 0.0980
vn 0.9948 -0.0287 0.0980
vn 0.9566 -0.0286 0.2901
vn 0.9565 -0.0287 0.2902
vn 0.8816 -0.0286 0.4712
vn 0.8816 -0.0286 0.4711
vn 0.7727 -0.0286 0.6342
vn 0.7726 -0.0286 0.6342
vn 0.6341 -0.0286 0.7727
vn 0.6340 -0.0286 0.7728
vn 0.4712 -0.0286 0.8816
vn 0.4712 -0.0286 0.8815
vn 0.2902 -0.0285 0.9566
vn 0.2901 -0.0286 0.9566
vn 0.0981 -0.0286 0.9948
vn -0.2902 -0.0285 0.9566
vn -0.4712 -0.0285 0.8816
vn -0.9566 -0.0285 0.2901
vn -0.9948 -0.0285 -0.0981
vn -0.9566 -0.0285 -0.2901
vn -0.8815 -0.0285 -0.4712
vn -0.7727 -0.0285 -0.6341
vn -0.6342 -0.0285 -0.7727
vn -0.4712 -0.0285 -0.8816
vn -0.2901 -0.0285 -0.9566
vn -0.0980 -0.0285 -0.9948
vn 0.0980 -0.0285 -0.9948
vn 0.2901 -0.0285 -0.9566
vn 0.4712 -0.0285 -0.8815
vn 0.6342 -0.0285 -0.7727
vn 0.7727 -0.0285 -0.6341
vn 0.8815 -0.0285 -0.4712
vn 0.9566 -0.0285 -0.2901
vn 0.9948 -0.0285 -0.0980
vn 0.9948 -0.0285 0.0980
vn 0.9566 -0.0285 0.2901
vn 0.8815 -0.0285 0.4712
vn 0.7727 -0.0285 0.6341
vn 0.6341 -0.0285 0.7727
vn 0.4712 -0.0285 0.8816
vn 0.0980 -0.0288 0.9948
vn 0.9996 -0.0288 -0.0005
vn -0.9996 -0.0288 0.0005
vn -0.9948 -0.0287 -0.0979
vn -0.9948 -0.0286 -0.0978
vn -0.9565 -0.0287 -0.2902
vn -0.9565 -0.0286 -0.2902
vn -0.8815 -0.0287 -0.4712
vn -0.8815 -0.0286 -0.4713
vn -0.7727 -0.0287 -0.6341
vn -0.7727 -0.0286 -0.6341
vn -0.6342 -0.0287 -0.7726
vn -0.6342 -0.0286 -0.7726
vn -0.4712 -0.0287 -0.8816
vn -0.4712 -0.0286 -0.8815
vn -0.2901 -0.0287 -0.9566
vn -0.2901 -0.0286 -0.9566
vn -0.0979 -0.0287 -0.9948
vn -0.0980 -0.0287 -0.9948
vn 0.0980 -0.0287 -0.9948
vn 0.2901 -0.0287 -0.9566
vn 0.2901 -0.0286 -0.9566
vn 0.4712 -0.0287 -0.8816
vn 0.4712 -0.0286 -0.8816
vn 0.6342 -0.0287 -0.7726
vn 0.6342 -0.0286 -0.7726
vn 0.7727 -0.0287 -0.6341
vn 0.7727 -0.0286 -0.6341
vn 0.8815 -0.0287 -0.4712
vn 0.8815 -0.0286 -0.4713
vn 0.9565 -0.0287 -0.2902
vn 0.9565 -0.0286 -0.2902
vn 0.9948 -0.0287 -0.0980
vn 0.9948 -0.0286 -0.0980
vn -0.0980 -0.0288 0.9948
vn -0.2902 -0.0288 0.9565
vn -0.4712 -0.0288 0.8815
vn -0.6341 -0.0288 0.7727
vn -0.7727 -0.0288 0.6341
vn -0.8816 -0.0288 0.4712
vn -0.9565 -0.0288 0.2902
vn -0.9948 -0.0288 0.0979
vn -0.9948 -0.0288 -0.0979
vn -0.9565 -0.0288 -0.2902
vn -0.8816 -0.0288 -0.4712
vn -0.7727 -0.0288 -0.6341
vn -0.6342 -0.0288 -0.7726
vn -0.4712 -0.0288 -0.8816
vn -0.2902 -0.0288 -0.9565
vn -0.0979 -0.0288 -0.9948
vn 0.0979 -0.0288 -0.9948
vn 0.2902 -0.0288 -0.9565
vn 0.4712 -0.0288 -0.8816
vn 0.6342 -0.0288 -0.7726
vn 0.7727 -0.0288 -0.6341
vn 0.8816 -0.0288 -0.4712
vn 0.9565 -0.0288 -0.2902
vn 0.9948 -0.0288 -0.0980
vn 0.9948 -0.0288 0.0980
vn 0.9565 -0.0288 0.2902
vn 0.8816 -0.0288 0.4712
vn 0.7727 -0.0288 0.6341
vn 0.6341 -0.0288 0.7727
vn 0.4712 -0.0288 0.8816
vn 0.2902 -0.0288 0.9565
s 1
f 1//1 2//1 3//1
f 1//1 4//1 5//1
f 1//1 6//1 7//1
f 1//1 8//1 9//1
f 1//1 10//1 11//1
f 1//1 12//1 13//1
f 1//1 14//1 15//1
f 1//1 16//1 17//1
f 1//1 18//1 19//1
f 1//1 20//1 21//1
f 1//1 22//1 23//1
f 1//1 24//1 25//1
f 1//1 26//1 27//1
f 1//1 28//1 29//1
f 1//1 5//1 2//1
f 1//1 7//1 4//1
f 1//1 9//1 6//1
f 1//1 11//1 8//1
f 1//1 13//1 10//1
f 1//1 15//1 12//1
f 1//1 17//1 14//1
f 1//1 19//1 16//1
f 1//1 21//1 18//1
f 1//1 23//1 20//1
f 1//1 25//1 22//1
f 1//1 27//1 24//1
f 1//1 29//1 26//1
f 1//1 30//1 28//1
f 1//1 31//1 30//1
f 1//1 32//1 31//1
f 1//1 33//1 32//1
f 1//1 3//1 33//1
f 34//2 35//2 3//2 2//2
f 36//3 37//3 38//3
f 37//3 39//3 38//3
f 37//3 40//3 39//3
f 37//3 41//3 40//3
f 37//3 42//3 41//3
f 37//3 43//3 42//3
f 37//3 44//3 43//3
f 37//3 45//3 44//3
f 37//3 46//3 47//3
f 37//3 48//3 46//3
f 37//3 49//3 48//3
f 37//3 50//3 49//3
f 37//3 51//3 50//3
f 37//3 52//3 51//3
f 37//3 53//3 52//3
f 37//3 36//3 53//3
f 54//4 53//5 36//5 34//4
f 54//6 55//6 52//7 53//7
f 55//8 56//8 51//9 52//9
f 56//10 57//10 50//11 51//11
f 57//12 58//12 49//13 50//13
f 58//14 59//14 48//15 49//15
f 59//16 60//16 46//16 48//16
f 60//17 61//17 47//18 46//18
f 62//19 63//19 44//20 45//20
f 63//21 64//21 43//22 44//22
f 64//23 65//23 42//24 43//24
f 65//25 66//25 41//26 42//26
f 66//27 67//27 40//28 41//28
f 67//29 68//29 39//30 40//30
f 68//31 35//31 38//32 39//32
f 36//33 38//33 35//2 34//2
f 5//4 54//4 34//4 2//4
f 5//34 4//34 55//6 54//6
f 4//35 7//35 56//8 55//8
f 7//10 6//10 57//10 56//10
f 6//12 9//12 58//12 57//12
f 9//14 8//14 59//14 58//14
f 8//36 11//36 60//16 59//16
f 11//17 10//17 61//17 60//17
f 10//37 13//37 69//37 61//37
f 13//38 12//38 70//38 69//38
f 12//39 15//39 71//39 70//39
f 15//40 14//40 72//40 71//40
f 14//41 17//41 73//41 72//41
f 17//42 16//42 74//42 73//42
f 16//43 19//43 75//43 74//43
f 19//44 18//44 76//44 75//44
f 21//45 77//45 76//45 18//45
f 21//46 20//46 78//46 77//46
f 20//47 23//47 79//47 78//47
f 23//48 22//48 80//48 79//48
f 22//49 25//49 81//49 80//49
f 25//50 24//50 82//50 81//50
f 24//51 27//51 83//51 82//51
f 27//52 26//52 62//52 83//52
f 26//53 29//53 63//19 62//19
f 29//54 28//54 64//21 63//21
f 28//55 30//55 65//23 64//23
f 30//56 31//56 66//25 65//25
f 31//57 32//57 67//27 66//27
f 32//58 33//58 68//29 67//29
f 33//31 3//31 35//31 68//31
f 84//1 85//1 86//1
f 84//1 87//1 88//1
f 84//1 89//1 90//1
f 84//1 91//1 92//1
f 84//1 93//1 94//1
f 84//1 95//1 96//1
f 84//1 97//1 98//1
f 84//1 99//1 100//1
f 84//1 101//1 102//1
f 84//1 103//1 104//1
f 84//1 105//1 106//1
f 84//1 107//1 108//1
f 84//1 109//1 110//1
f 84//1 111//1 112//1
f 84//1 88//1 85//1
f 84//1 90//1 87//1
f 84//1 92//1 89//1
f 84//1 94//1 91//1
f 84//1 96//1 93//1
f 84//1 98//1 95//1
f 84//1 100//1 97//1
f 84//1 102//1 99//1
f 84//1 104//1 101//1
f 84//1 106//1 103//1
f 84//1 108//1 105//1
f 84//1 110//1 107//1
f 84//1 112//1 109//1
f 84//1 113//1 111//1
f 84//1 114//1 113//1
f 84//1 115//1 114//1
f 84//1 116//1 115//1
f 84//1 86//1 116//1
f 117//59 118//59 86//59 85//59
f 79//1 119//1 78//1
f 78//1 118//1 77//1
f 77//1 117//1 76//1
f 76//1 120//1 75//1
f 75//1 121//1 74//1
f 74//1 122//1 73//1
f 73//1 123//1 72//1
f 124//3 125//3 126//3
f 124//3 127//3 125//3
f 124//3 128//3 127//3
f 124//3 129//3 128//3
f 124//3 130//3 129//3
f 124//3 131//3 130//3
f 124//3 132//3 131//3
f 124//3 133//3 132//3
f 124//3 134//3 133//3
f 124//3 135//3 134//3
f 124//3 136//3 135//3
f 124//3 137//3 136//3
f 124//3 138//3 137//3
f 124//3 139//3 138//3
f 124//3 140//3 139//3
f 124//3 141//3 140//3
f 142//1 71//1 143//1
f 72//1 143//1 71//1
f 69//1 70//1 144//1
f 126//60 145//60 62//60
f 47//61 61//61 146//61
f 37//3 47//3 141//3
f 37//3 124//3 45//3
f 119//1 79//1 147//1
f 126//3 45//3 124//3
f 124//3 37//3 141//3
f 141//61 47//61 146//61
f 45//60 126//60 62//60
f 146//1 69//1 144//1
f 142//1 144//1 70//1
f 71//1 142//1 70//1
f 146//62 148//62 140//63 141//63
f 148//64 149//64 139//65 140//65
f 149//66 150//66 138//67 139//67
f 150//68 151//68 137//69 138//69
f 151//70 152//70 136//71 137//71
f 152//72 153//72 135//73 136//73
f 153//74 154//74 134//75 135//75
f 154//76 155//76 133//77 134//77
f 156//78 132//78 133//78 155//78
f 156//79 157//79 131//80 132//80
f 157//81 158//81 130//82 131//82
f 158//83 159//83 129//84 130//84
f 159//85 160//85 128//86 129//86
f 160//87 161//87 127//88 128//88
f 161//89 162//89 125//90 127//90
f 162//91 145//91 126//92 125//92
f 123//1 143//1 72//1
f 122//1 123//1 73//1
f 121//1 122//1 74//1
f 120//1 121//1 75//1
f 120//1 76//1 117//1
f 118//1 117//1 77//1
f 119//1 118//1 78//1
f 88//93 120//93 117//93 85//93
f 88//94 87//94 121//94 120//94
f 87//95 90//95 122//95 121//95
f 90//96 89//96 123//96 122//96
f 89//97 92//97 143//97 123//97
f 92//98 91//98 142//98 143//98
f 91//99 94//99 144//99 142//99
f 94//100 93//100 146//100 144//100
f 93//101 96//101 148//62 146//62
f 96//102 95//102 149//64 148//64
f 95//103 98//103 150//66 149//66
f 98//104 97//104 151//68 150//68
f 97//105 100//105 152//70 151//70
f 100//106 99//106 153//72 152//72
f 99//107 102//107 154//74 153//74
f 102//108 101//108 155//76 154//76
f 104//109 156//78 155//78 101//109
f 104//110 103//110 157//79 156//79
f 103//111 106//111 158//81 157//81
f 106//112 105//112 159//83 158//83
f 105//113 108//113 160//85 159//85
f 108//114 107//114 161//87 160//87
f 107//115 110//115 162//89 161//89
f 110//116 109//116 145//91 162//91
f 109//117 112//117 163//117 145//117
f 112//118 111//118 164//118 163//118
f 111//119 113//119 165//119 164//119
f 113//120 114//120 166//120 165//120
f 114//121 115//121 147//121 166//121
f 115//122 116//122 119//122 147//122
f 116//123 86//123 118//123 119//123
f 80//1 147//1 79//1
f 147//1 80//1 166//1
f 80//1 81//1 166//1
f 166//1 81//1 165//1
f 81//1 82//1 165//1
f 165//1 82//1 164//1
f 82//1 83//1 164//1
f 164//1 83//1 163//1
f 83//1 62//1 163//1
f 145//1 163//1 62//1
f 69//1 146//1 61//1
